# xmcd
# 
# Track frame offsets:
#     150
#     17530
#     37695
#     44640
#     62021
# 
# Disc length: 1095
# 
# Revision: 0
# Processed by: cddbd v1.5.2PL0 Copyright (c) Steve Scherf et al.
# Submitted via: fre:ac v1.0.27
# 
DISCID=34044505
DTITLE=DIALOGUE＋ - はじめてのかくめい！
DYEAR=2019
DGENRE=Anime
TTITLE0=はじめてのかくめい！
TTITLE1=ダイアローグ＋インビテーション！
TTITLE2=はじめてのかくめい！（TVサイズ）
TTITLE3=はじめてのかくめい！（Instrumental）
TTITLE4=ダイアローグ＋インビテーション！（Instrumental）
EXTD=
EXTT0=
EXTT1=
EXTT2=
EXTT3=
EXTT4=
PLAYORDER=
